<svg width="97" height="97" viewBox="0 0 97 97" fill="none" xmlns="http://www.w3.org/2000/svg">
<circle cx="48.5" cy="48.5" r="48.5" fill="url(#paint0_linear_18_200)"/>
<g clip-path="url(#clip0_18_200)">
<path d="M55.4999 37C57.1589 37 58.4324 38.2645 59.3759 39.625L59.6954 40.1065L59.9879 40.5865C60.0809 40.7425 60.1694 40.8985 60.2549 41.0485C61.4354 43.159 62.4629 45.9145 63.1424 48.637C63.8174 51.3385 64.1909 54.16 63.9524 56.3785C63.7124 58.606 62.5649 61 59.9999 61C57.6989 61 55.8854 59.77 54.4124 58.5685L52.7474 57.172C51.3629 56.038 49.8479 55 47.9999 55C46.1519 55 44.6354 56.038 43.2539 57.172L41.5889 58.567C40.1129 59.77 38.2994 61 35.9999 61C33.4334 61 32.2859 58.606 32.0474 56.3785C31.8104 54.1585 32.1824 51.3385 32.8574 48.637C33.5369 45.9145 34.5644 43.159 35.7449 41.0485L36.0119 40.585L36.3044 40.1065L36.6239 39.625C37.5674 38.2645 38.8409 37 40.4999 37C41.2649 37 42.0254 37.186 42.7724 37.405L43.6619 37.678C43.8089 37.723 43.9544 37.7665 44.0999 37.807C45.3974 38.179 46.7249 38.5 47.9999 38.5C49.2749 38.5 50.6024 38.179 51.8999 37.807L53.2274 37.4065C53.9744 37.186 54.7349 37 55.4999 37ZM42.7499 43C41.7554 43 40.8016 43.3951 40.0983 44.0983C39.395 44.8016 38.9999 45.7554 38.9999 46.75C38.9999 47.7446 39.395 48.6984 40.0983 49.4017C40.8016 50.1049 41.7554 50.5 42.7499 50.5C43.7445 50.5 44.6983 50.1049 45.4016 49.4017C46.1049 48.6984 46.4999 47.7446 46.4999 46.75C46.4999 45.7554 46.1049 44.8016 45.4016 44.0983C44.6983 43.3951 43.7445 43 42.7499 43ZM53.2499 43C52.8521 43 52.4706 43.158 52.1893 43.4393C51.908 43.7206 51.7499 44.1022 51.7499 44.5V45.25H50.9999C50.6021 45.25 50.2206 45.408 49.9393 45.6893C49.658 45.9706 49.4999 46.3522 49.4999 46.75C49.4999 47.1478 49.658 47.5294 49.9393 47.8107C50.2206 48.092 50.6021 48.25 50.9999 48.25H51.7499V49C51.7499 49.3978 51.908 49.7794 52.1893 50.0607C52.4706 50.342 52.8521 50.5 53.2499 50.5C53.6478 50.5 54.0293 50.342 54.3106 50.0607C54.5919 49.7794 54.7499 49.3978 54.7499 49V48.25H55.4999C55.8978 48.25 56.2793 48.092 56.5606 47.8107C56.8419 47.5294 56.9999 47.1478 56.9999 46.75C56.9999 46.3522 56.8419 45.9706 56.5606 45.6893C56.2793 45.408 55.8978 45.25 55.4999 45.25H54.7499V44.5C54.7499 44.1022 54.5919 43.7206 54.3106 43.4393C54.0293 43.158 53.6478 43 53.2499 43ZM42.7499 46C42.9489 46 43.1396 46.079 43.2803 46.2197C43.4209 46.3603 43.4999 46.5511 43.4999 46.75C43.4999 46.9489 43.4209 47.1397 43.2803 47.2803C43.1396 47.421 42.9489 47.5 42.7499 47.5C42.551 47.5 42.3603 47.421 42.2196 47.2803C42.079 47.1397 41.9999 46.9489 41.9999 46.75C41.9999 46.5511 42.079 46.3603 42.2196 46.2197C42.3603 46.079 42.551 46 42.7499 46Z" fill="white"/>
</g>
<defs>
<linearGradient id="paint0_linear_18_200" x1="87.0003" y1="84.5" x2="78.8334" y2="4.91067" gradientUnits="userSpaceOnUse">
<stop stop-color="#E84932"/>
<stop offset="1" stop-color="#FCC47F"/>
</linearGradient>
<clipPath id="clip0_18_200">
<rect width="36" height="36" fill="white" transform="translate(30 31)"/>
</clipPath>
</defs>
</svg>
