<svg width="97" height="97" viewBox="0 0 97 97" fill="none" xmlns="http://www.w3.org/2000/svg">
<circle cx="48.5" cy="48.5" r="48.5" fill="url(#paint0_linear_2207_2)"/>
<path d="M48 64C53.5785 64 58.5945 60.9475 61.2135 56.029L49.5 49L61.2135 41.971C58.5945 37.0525 53.5785 34 48 34C39.729 34 33 40.729 33 49C33 57.271 39.729 64 48 64ZM47.25 40C47.8469 40.0002 48.4193 40.2375 48.8413 40.6598C49.2633 41.082 49.5002 41.6546 49.5 42.2515C49.4998 42.8484 49.2625 43.4208 48.8402 43.8428C48.418 44.2648 47.8454 44.5017 47.2485 44.5015C46.6516 44.5013 46.0792 44.264 45.6572 43.8417C45.2352 43.4195 44.9983 42.8469 44.9985 42.25C44.9987 41.6531 45.236 41.0807 45.6583 40.6587C46.0805 40.2367 46.6531 39.9998 47.25 40Z" fill="white"/>
<defs>
<linearGradient id="paint0_linear_2207_2" x1="87.0003" y1="84.5" x2="78.8334" y2="4.91067" gradientUnits="userSpaceOnUse">
<stop stop-color="#E84932"/>
<stop offset="1" stop-color="#FCC47F"/>
</linearGradient>
</defs>
</svg>
