<svg width="97" height="97" viewBox="0 0 97 97" fill="none" xmlns="http://www.w3.org/2000/svg">
<circle cx="48.5" cy="48.5" r="48.5" fill="#E84932"/>
<circle cx="48.5" cy="48.5" r="48.5" fill="url(#paint0_linear_2208_3)"/>
<path fill-rule="evenodd" clip-rule="evenodd" d="M30 36.0323C30 33.9623 31.6766 32.2857 33.7466 32.2857H62.2534C64.3234 32.2857 66 33.9623 66 36.0323V55.5391C66 57.6091 64.3234 59.2857 62.2534 59.2857H51.9009L53.2766 63.13H55.7143C56.2258 63.13 56.7163 63.3332 57.078 63.6949C57.4397 64.0565 57.6429 64.5471 57.6429 65.0586C57.6429 65.57 57.4397 66.0606 57.078 66.4223C56.7163 66.7839 56.2258 66.9871 55.7143 66.9871H40.2857C39.7742 66.9871 39.2837 66.7839 38.922 66.4223C38.5603 66.0606 38.3571 65.57 38.3571 65.0586C38.3571 64.5471 38.5603 64.0565 38.922 63.6949C39.2837 63.3332 39.7742 63.13 40.2857 63.13H42.7234L44.0991 59.2857H33.7466C33.2546 59.2857 32.7674 59.1888 32.3128 59.0005C31.8583 58.8122 31.4452 58.5363 31.0973 58.1884C30.7494 57.8405 30.4735 57.4274 30.2852 56.9729C30.0969 56.5183 30 56.0311 30 55.5391V36.0323ZM35.3074 45.22C35.3074 44.3328 36.0274 43.6128 36.9146 43.6128H39.1646V41.3628C39.1646 40.9366 39.3339 40.5278 39.6353 40.2264C39.9367 39.925 40.3455 39.7557 40.7717 39.7557C41.198 39.7557 41.6067 39.925 41.9081 40.2264C42.2095 40.5278 42.3789 40.9366 42.3789 41.3628V43.6128H44.6289C45.0551 43.6128 45.4639 43.7822 45.7653 44.0836C46.0667 44.385 46.236 44.7938 46.236 45.22C46.236 45.6462 46.0667 46.055 45.7653 46.3564C45.4639 46.6578 45.0551 46.8271 44.6289 46.8271H42.3789V49.0771C42.3789 49.5034 42.2095 49.9122 41.9081 50.2136C41.6067 50.515 41.198 50.6843 40.7717 50.6843C40.3455 50.6843 39.9367 50.515 39.6353 50.2136C39.3339 49.9122 39.1646 49.5034 39.1646 49.0771V46.8271H36.9146C36.4883 46.8271 36.0795 46.6578 35.7781 46.3564C35.4768 46.055 35.3074 45.6462 35.3074 45.22ZM55.9869 42.7128C55.9869 43.3096 56.2239 43.8819 56.6459 44.3038C57.0678 44.7258 57.6401 44.9628 58.2369 44.9628C58.8336 44.9628 59.4059 44.7258 59.8278 44.3038C60.2498 43.8819 60.4869 43.3096 60.4869 42.7128C60.4869 42.1161 60.2498 41.5438 59.8278 41.1219C59.4059 40.6999 58.8336 40.4628 58.2369 40.4628C57.6401 40.4628 57.0678 40.6999 56.6459 41.1219C56.2239 41.5438 55.9869 42.1161 55.9869 42.7128ZM50.9957 47.7271C50.9957 48.3239 51.2328 48.8962 51.6547 49.3181C52.0767 49.7401 52.649 49.9771 53.2457 49.9771C53.8425 49.9771 54.4147 49.7401 54.8367 49.3181C55.2587 48.8962 55.4957 48.3239 55.4957 47.7271C55.4957 47.1304 55.2587 46.5581 54.8367 46.1361C54.4147 45.7142 53.8425 45.4771 53.2457 45.4771C52.649 45.4771 52.0767 45.7142 51.6547 46.1361C51.2328 46.5581 50.9957 47.1304 50.9957 47.7271Z" fill="white"/>
<defs>
<linearGradient id="paint0_linear_2208_3" x1="87.0003" y1="84.5" x2="78.8334" y2="4.91067" gradientUnits="userSpaceOnUse">
<stop stop-color="#E84932"/>
<stop offset="1" stop-color="#FCC47F"/>
</linearGradient>
</defs>
</svg>
